<svg id="图层_1" data-name="图层 1" xmlns="http://www.w3.org/2000/svg" viewBox="0 0 600.26 706.44"><defs><style>.cls-1{stroke:#000;stroke-miterlimit:10;stroke-width:4px;}</style></defs><title>创世鱼缸logo</title><path d="M480.91,688.21l114.46,66.2V621.48Zm51.23,10.42A10.88,10.88,0,1,1,543,687.75,10.88,10.88,0,0,1,532.14,698.63Z" transform="translate(-295.84 -204.15)"/><polygon points="421.85 458.45 385.64 479.36 305.64 433.17 305.64 534.91 385.64 488.72 421.85 509.63 421.85 458.45"/><polygon points="282.2 0 263.14 166.35 236.21 292.06 221.87 273.17 222.86 177.82 188.04 196.15 166.09 215.01 165.36 269.97 186.07 323.11 182.26 348.87 139.85 277.91 127.22 177.63 282.2 0"/><polygon points="170.04 226.22 170.04 263.14 218.7 301.12 214.09 274.75 170.04 226.22"/><polygon points="320.62 0 339.68 166.35 366.61 292.06 380.95 273.17 379.96 177.82 414.77 196.15 436.73 215.01 437.46 269.97 416.75 323.11 420.56 348.87 462.97 277.91 475.6 177.63 320.62 0"/><polygon points="432.77 226.22 432.77 263.14 384.12 301.12 388.73 274.75 432.77 226.22"/><polygon points="79.22 362.35 78.79 362.35 0 362.35 119.93 551.58 300.07 706.44 480.26 551.18 600.26 362.41 519.96 362.41 554.31 384.37 459.96 535.42 301.17 629.46 299.98 629.44 141.16 536.41 45.82 384.24 79.22 362.35"/><line class="cls-1" x1="227.27" y1="297.07" x2="227.27" y2="462.17"/><line class="cls-1" x1="374.7" y1="295.95" x2="374.7" y2="474.3"/></svg>